<svg xmlns="http://www.w3.org/2000/svg" xmlns:xlink="http://www.w3.org/1999/xlink" x="0px" y="0px" width="16px" height="80px" viewBox="1.8 2.1 16 80">
	<g  transform="translate(0, 0)">
		<path fill="#0c090d" d="M17.35,2.219h-5.934c-0.115,0-0.225,0.045-0.307,0.128l-8.762,8.762c-0.171,0.168-0.171,0.443,0,0.611l5.933,5.934c0.167,0.171,0.443,0.169,0.612,0l8.762-8.763c0.083-0.083,0.128-0.192,0.128-0.307V2.651C17.781,2.414,17.587,2.219,17.35,2.219M16.916,8.405l-8.332,8.332l-5.321-5.321l8.333-8.332h5.32V8.405z M13.891,4.367c-0.957,0-1.729,0.772-1.729,1.729c0,0.957,0.771,1.729,1.729,1.729s1.729-0.772,1.729-1.729C15.619,5.14,14.848,4.367,13.891,4.367 M14.502,6.708c-0.326,0.326-0.896,0.326-1.223,0c-0.338-0.342-0.338-0.882,0-1.224c0.342-0.337,0.881-0.337,1.223,0C14.84,5.826,14.84,6.366,14.502,6.708"/>
	</g>
	<g  transform="translate(0, 16)">
		<path fill="#0c090d" d="M18.303,4.742l-1.454-1.455c-0.171-0.171-0.475-0.171-0.646,0l-3.061,3.064H2.019c-0.251,0-0.457,0.205-0.457,0.456v9.578c0,0.251,0.206,0.456,0.457,0.456h13.683c0.252,0,0.457-0.205,0.457-0.456V7.533l2.144-2.146C18.481,5.208,18.483,4.917,18.303,4.742 M15.258,15.929H2.476V7.263h9.754L9.695,9.792c-0.057,0.057-0.101,0.13-0.119,0.212L9.18,11.36h-3.98c-0.251,0-0.457,0.205-0.457,0.456c0,0.253,0.205,0.456,0.457,0.456h4.336c0.023,0,0.899,0.02,1.498-0.127c0.312-0.077,0.55-0.137,0.55-0.137c0.08-0.018,0.155-0.059,0.212-0.118l3.463-3.443V15.929z M11.241,11.156l-1.078,0.267l0.267-1.076l6.097-6.091l0.808,0.808L11.241,11.156z"/>
	</g>
	<g  transform="translate(0, 32)">
		<path fill="#0c090d" d="M18.109,17.776l-3.082-3.081c-0.059-0.059-0.135-0.077-0.211-0.087c1.373-1.38,2.221-3.28,2.221-5.379c0-4.212-3.414-7.626-7.625-7.626c-4.212,0-7.626,3.414-7.626,7.626s3.414,7.627,7.626,7.627c1.918,0,3.665-0.713,5.004-1.882c0.006,0.085,0.033,0.17,0.098,0.234l3.082,3.081c0.143,0.142,0.371,0.142,0.514,0C18.25,18.148,18.25,17.918,18.109,17.776zM9.412,16.13c-3.811,0-6.9-3.089-6.9-6.9c0-3.81,3.089-6.899,6.9-6.899c3.811,0,6.901,3.09,6.901,6.899C16.312,13.041,13.223,16.13,9.412,16.13z"/>
	</g>
	<g  transform="translate(0, 48)">
		<path fill="#0c090d" d="M10,1.375c-3.17,0-5.75,2.548-5.75,5.682c0,6.685,5.259,11.276,5.483,11.469c0.152,0.132,0.382,0.132,0.534,0c0.224-0.193,5.481-4.784,5.483-11.469C15.75,3.923,13.171,1.375,10,1.375 M10,17.653c-1.064-1.024-4.929-5.127-4.929-10.596c0-2.68,2.212-4.861,4.929-4.861s4.929,2.181,4.929,4.861C14.927,12.518,11.063,16.627,10,17.653 M10,3.839c-1.815,0-3.286,1.47-3.286,3.286s1.47,3.286,3.286,3.286s3.286-1.47,3.286-3.286S11.815,3.839,10,3.839 M10,9.589c-1.359,0-2.464-1.105-2.464-2.464S8.641,4.661,10,4.661s2.464,1.105,2.464,2.464S11.359,9.589,10,9.589"/>
	</g>
	<g  transform="translate(0, 64)">
		<path fill="#0c090d" d="M8.627,7.885C8.499,8.388,7.873,8.101,8.13,8.177L4.12,7.143c-0.218-0.057-0.351-0.28-0.293-0.498c0.057-0.218,0.279-0.351,0.497-0.294l4.011,1.037C8.552,7.444,8.685,7.667,8.627,7.885 M8.334,10.123L4.323,9.086C4.105,9.031,3.883,9.162,3.826,9.38C3.769,9.598,3.901,9.82,4.12,9.877l4.01,1.037c-0.262-0.062,0.373,0.192,0.497-0.294C8.685,10.401,8.552,10.18,8.334,10.123 M7.131,12.507L4.323,11.78c-0.218-0.057-0.44,0.076-0.497,0.295c-0.057,0.218,0.075,0.439,0.293,0.495l2.809,0.726c-0.265-0.062,0.37,0.193,0.495-0.293C7.48,12.784,7.35,12.562,7.131,12.507M18.159,3.677v10.701c0,0.186-0.126,0.348-0.306,0.393l-7.755,1.948c-0.07,0.016-0.134,0.016-0.204,0l-7.748-1.948c-0.179-0.045-0.306-0.207-0.306-0.393V3.677c0-0.267,0.249-0.461,0.509-0.396l7.646,1.921l7.654-1.921C17.91,3.216,18.159,3.41,18.159,3.677 M9.589,5.939L2.656,4.203v9.857l6.933,1.737V5.939z M17.344,4.203l-6.939,1.736v9.859l6.939-1.737V4.203z M16.168,6.645c-0.058-0.218-0.279-0.351-0.498-0.294l-4.011,1.037c-0.218,0.057-0.351,0.28-0.293,0.498c0.128,0.503,0.755,0.216,0.498,0.292l4.009-1.034C16.092,7.085,16.225,6.863,16.168,6.645 M16.168,9.38c-0.058-0.218-0.279-0.349-0.498-0.294l-4.011,1.036c-0.218,0.057-0.351,0.279-0.293,0.498c0.124,0.486,0.759,0.232,0.498,0.294l4.009-1.037C16.092,9.82,16.225,9.598,16.168,9.38 M14.963,12.385c-0.055-0.219-0.276-0.35-0.495-0.294l-2.809,0.726c-0.218,0.056-0.351,0.279-0.293,0.496c0.127,0.506,0.755,0.218,0.498,0.293l2.807-0.723C14.89,12.825,15.021,12.603,14.963,12.385"/>
	</g>

</svg>